<svg xmlns="http://www.w3.org/2000/svg" width="1200" height="900" viewBox="0 0 1200 900">
  <defs>
    <linearGradient id="g" x1="0" y1="0" x2="1" y2="1">
      <stop offset="0" stop-color="#0f1330"/>
      <stop offset="1" stop-color="#3a2a5e"/>
    </linearGradient>
    <radialGradient id="glow" cx="0.7" cy="0.3" r="0.6">
      <stop offset="0" stop-color="#e9a6bd" stop-opacity="0.35"/>
      <stop offset="1" stop-color="#e9a6bd" stop-opacity="0"/>
    </radialGradient>
  </defs>
  <rect width="1200" height="900" fill="url(#g)"/>
  <rect width="1200" height="900" fill="url(#glow)"/>
  <!-- soft sparkles -->
  <circle cx="998" cy="124" r="2.9" fill="#f5f1ea" opacity="0.41"/>
  <circle cx="607" cy="713" r="2.2" fill="#f5f1ea" opacity="0.46"/>
  <circle cx="150" cy="75" r="1.0" fill="#f5f1ea" opacity="0.69"/>
  <circle cx="19" cy="65" r="1.1" fill="#f5f1ea" opacity="0.67"/>
  <circle cx="203" cy="375" r="1.3" fill="#f5f1ea" opacity="0.60"/>
  <circle cx="266" cy="472" r="2.1" fill="#f5f1ea" opacity="0.28"/>
  <circle cx="199" cy="290" r="1.8" fill="#f5f1ea" opacity="0.63"/>
  <circle cx="770" cy="120" r="1.5" fill="#f5f1ea" opacity="0.40"/>
  <circle cx="647" cy="840" r="3.0" fill="#f5f1ea" opacity="0.47"/>
  <circle cx="591" cy="32" r="2.2" fill="#f5f1ea" opacity="0.48"/>
  <circle cx="251" cy="24" r="2.3" fill="#f5f1ea" opacity="0.47"/>
  <circle cx="848" cy="134" r="2.3" fill="#f5f1ea" opacity="0.67"/>
  <circle cx="482" cy="898" r="1.2" fill="#f5f1ea" opacity="0.64"/>
  <circle cx="248" cy="840" r="2.3" fill="#f5f1ea" opacity="0.69"/>
  <circle cx="663" cy="389" r="1.1" fill="#f5f1ea" opacity="0.28"/>
  <circle cx="1194" cy="249" r="1.5" fill="#f5f1ea" opacity="0.69"/>
  <circle cx="921" cy="805" r="1.5" fill="#f5f1ea" opacity="0.31"/>
  <circle cx="1072" cy="121" r="2.5" fill="#f5f1ea" opacity="0.51"/>
  <!-- frame -->
  <rect x="370" y="300" width="460" height="300" rx="24"
        fill="none" stroke="#e9a6bd" stroke-opacity="0.5" stroke-width="2"/>
  <!-- icon: a house for the future-home placeholders, otherwise a heart -->
  <path transform="translate(582,354) scale(1.4)"
        d="M18 30 C 4 18, 4 6, 12 4 C 16 3, 18 6, 18 8 C 18 6, 20 3, 24 4 C 32 6, 32 18, 18 30 Z"
        fill="#e9a6bd" opacity="0.85"/>
  <text x="50%" y="470" text-anchor="middle"
        font-family="Georgia, 'Times New Roman', serif" font-size="34"
        fill="#f5f1ea" letter-spacing="3">PHOTO_PLACEHOLDER_06</text>
  <text x="50%" y="518" text-anchor="middle"
        font-family="Georgia, serif" font-size="20" fill="#a9b0cf" letter-spacing="2">
    drop your photo here
  </text>
</svg>