<svg xmlns="http://www.w3.org/2000/svg" width="1200" height="900" viewBox="0 0 1200 900">
  <defs>
    <linearGradient id="g" x1="0" y1="0" x2="1" y2="1">
      <stop offset="0" stop-color="#10162e"/>
      <stop offset="1" stop-color="#4a2f4f"/>
    </linearGradient>
    <radialGradient id="glow" cx="0.7" cy="0.3" r="0.6">
      <stop offset="0" stop-color="#ffe3ad" stop-opacity="0.35"/>
      <stop offset="1" stop-color="#ffe3ad" stop-opacity="0"/>
    </radialGradient>
  </defs>
  <rect width="1200" height="900" fill="url(#g)"/>
  <rect width="1200" height="900" fill="url(#glow)"/>
  <!-- soft sparkles -->
  <circle cx="1161" cy="44" r="2.3" fill="#f5f1ea" opacity="0.35"/>
  <circle cx="132" cy="689" r="1.4" fill="#f5f1ea" opacity="0.67"/>
  <circle cx="153" cy="167" r="2.3" fill="#f5f1ea" opacity="0.59"/>
  <circle cx="840" cy="817" r="2.0" fill="#f5f1ea" opacity="0.52"/>
  <circle cx="901" cy="271" r="2.6" fill="#f5f1ea" opacity="0.28"/>
  <circle cx="405" cy="618" r="2.8" fill="#f5f1ea" opacity="0.36"/>
  <circle cx="959" cy="546" r="2.7" fill="#f5f1ea" opacity="0.47"/>
  <circle cx="374" cy="270" r="2.5" fill="#f5f1ea" opacity="0.44"/>
  <circle cx="136" cy="406" r="2.0" fill="#f5f1ea" opacity="0.23"/>
  <circle cx="9" cy="746" r="1.5" fill="#f5f1ea" opacity="0.66"/>
  <circle cx="754" cy="212" r="1.1" fill="#f5f1ea" opacity="0.58"/>
  <circle cx="812" cy="770" r="2.3" fill="#f5f1ea" opacity="0.68"/>
  <circle cx="964" cy="282" r="1.1" fill="#f5f1ea" opacity="0.54"/>
  <circle cx="132" cy="782" r="1.1" fill="#f5f1ea" opacity="0.33"/>
  <circle cx="760" cy="741" r="2.9" fill="#f5f1ea" opacity="0.62"/>
  <circle cx="1155" cy="869" r="2.4" fill="#f5f1ea" opacity="0.53"/>
  <circle cx="502" cy="454" r="2.0" fill="#f5f1ea" opacity="0.59"/>
  <circle cx="987" cy="865" r="2.0" fill="#f5f1ea" opacity="0.59"/>
  <!-- frame -->
  <rect x="370" y="300" width="460" height="300" rx="24"
        fill="none" stroke="#ffe3ad" stroke-opacity="0.5" stroke-width="2"/>
  <!-- icon: a house for the future-home placeholders, otherwise a heart -->
  <path transform="translate(582,354) scale(1.4)"
        d="M18 30 C 4 18, 4 6, 12 4 C 16 3, 18 6, 18 8 C 18 6, 20 3, 24 4 C 32 6, 32 18, 18 30 Z"
        fill="#ffe3ad" opacity="0.85"/>
  <text x="50%" y="470" text-anchor="middle"
        font-family="Georgia, 'Times New Roman', serif" font-size="34"
        fill="#f5f1ea" letter-spacing="3">PHOTO_PLACEHOLDER_04</text>
  <text x="50%" y="518" text-anchor="middle"
        font-family="Georgia, serif" font-size="20" fill="#a9b0cf" letter-spacing="2">
    drop your photo here
  </text>
</svg>