<svg xmlns="http://www.w3.org/2000/svg" width="1200" height="900" viewBox="0 0 1200 900">
  <defs>
    <linearGradient id="g" x1="0" y1="0" x2="1" y2="1">
      <stop offset="0" stop-color="#241b48"/>
      <stop offset="1" stop-color="#5a3a5e"/>
    </linearGradient>
    <radialGradient id="glow" cx="0.7" cy="0.3" r="0.6">
      <stop offset="0" stop-color="#b7a4ec" stop-opacity="0.35"/>
      <stop offset="1" stop-color="#b7a4ec" stop-opacity="0"/>
    </radialGradient>
  </defs>
  <rect width="1200" height="900" fill="url(#g)"/>
  <rect width="1200" height="900" fill="url(#glow)"/>
  <!-- soft sparkles -->
  <circle cx="704" cy="282" r="2.1" fill="#f5f1ea" opacity="0.51"/>
  <circle cx="535" cy="692" r="2.5" fill="#f5f1ea" opacity="0.52"/>
  <circle cx="308" cy="524" r="2.5" fill="#f5f1ea" opacity="0.32"/>
  <circle cx="753" cy="235" r="3.0" fill="#f5f1ea" opacity="0.66"/>
  <circle cx="1051" cy="671" r="2.1" fill="#f5f1ea" opacity="0.32"/>
  <circle cx="967" cy="503" r="2.7" fill="#f5f1ea" opacity="0.44"/>
  <circle cx="1142" cy="828" r="1.8" fill="#f5f1ea" opacity="0.23"/>
  <circle cx="338" cy="300" r="1.1" fill="#f5f1ea" opacity="0.48"/>
  <circle cx="263" cy="403" r="1.3" fill="#f5f1ea" opacity="0.49"/>
  <circle cx="899" cy="338" r="2.4" fill="#f5f1ea" opacity="0.59"/>
  <circle cx="442" cy="602" r="2.9" fill="#f5f1ea" opacity="0.39"/>
  <circle cx="415" cy="482" r="1.1" fill="#f5f1ea" opacity="0.49"/>
  <circle cx="314" cy="765" r="1.6" fill="#f5f1ea" opacity="0.26"/>
  <circle cx="1106" cy="590" r="2.0" fill="#f5f1ea" opacity="0.37"/>
  <circle cx="356" cy="609" r="1.9" fill="#f5f1ea" opacity="0.69"/>
  <circle cx="938" cy="503" r="1.7" fill="#f5f1ea" opacity="0.60"/>
  <circle cx="248" cy="652" r="2.9" fill="#f5f1ea" opacity="0.26"/>
  <circle cx="29" cy="193" r="2.1" fill="#f5f1ea" opacity="0.62"/>
  <!-- frame -->
  <rect x="370" y="300" width="460" height="300" rx="24"
        fill="none" stroke="#b7a4ec" stroke-opacity="0.5" stroke-width="2"/>
  <!-- icon: a house for the future-home placeholders, otherwise a heart -->
  <path transform="translate(582,354) scale(1.4)"
        d="M18 30 C 4 18, 4 6, 12 4 C 16 3, 18 6, 18 8 C 18 6, 20 3, 24 4 C 32 6, 32 18, 18 30 Z"
        fill="#b7a4ec" opacity="0.85"/>
  <text x="50%" y="470" text-anchor="middle"
        font-family="Georgia, 'Times New Roman', serif" font-size="34"
        fill="#f5f1ea" letter-spacing="3">PHOTO_PLACEHOLDER_03</text>
  <text x="50%" y="518" text-anchor="middle"
        font-family="Georgia, serif" font-size="20" fill="#a9b0cf" letter-spacing="2">
    drop your photo here
  </text>
</svg>