<svg xmlns="http://www.w3.org/2000/svg" width="1200" height="900" viewBox="0 0 1200 900">
  <defs>
    <linearGradient id="g" x1="0" y1="0" x2="1" y2="1">
      <stop offset="0" stop-color="#10162e"/>
      <stop offset="1" stop-color="#4a2f4f"/>
    </linearGradient>
    <radialGradient id="glow" cx="0.7" cy="0.3" r="0.6">
      <stop offset="0" stop-color="#e9a6bd" stop-opacity="0.35"/>
      <stop offset="1" stop-color="#e9a6bd" stop-opacity="0"/>
    </radialGradient>
  </defs>
  <rect width="1200" height="900" fill="url(#g)"/>
  <rect width="1200" height="900" fill="url(#glow)"/>
  <!-- soft sparkles -->
  <circle cx="779" cy="740" r="1.8" fill="#f5f1ea" opacity="0.41"/>
  <circle cx="1023" cy="48" r="1.2" fill="#f5f1ea" opacity="0.45"/>
  <circle cx="572" cy="358" r="2.1" fill="#f5f1ea" opacity="0.60"/>
  <circle cx="1075" cy="388" r="3.0" fill="#f5f1ea" opacity="0.33"/>
  <circle cx="926" cy="666" r="1.8" fill="#f5f1ea" opacity="0.48"/>
  <circle cx="1195" cy="180" r="1.2" fill="#f5f1ea" opacity="0.26"/>
  <circle cx="92" cy="71" r="1.6" fill="#f5f1ea" opacity="0.28"/>
  <circle cx="568" cy="450" r="3.0" fill="#f5f1ea" opacity="0.63"/>
  <circle cx="619" cy="783" r="2.8" fill="#f5f1ea" opacity="0.60"/>
  <circle cx="542" cy="152" r="1.4" fill="#f5f1ea" opacity="0.41"/>
  <circle cx="231" cy="762" r="2.7" fill="#f5f1ea" opacity="0.28"/>
  <circle cx="573" cy="521" r="2.9" fill="#f5f1ea" opacity="0.58"/>
  <circle cx="24" cy="387" r="1.4" fill="#f5f1ea" opacity="0.66"/>
  <circle cx="6" cy="48" r="2.4" fill="#f5f1ea" opacity="0.65"/>
  <circle cx="100" cy="418" r="2.9" fill="#f5f1ea" opacity="0.55"/>
  <circle cx="1000" cy="226" r="2.4" fill="#f5f1ea" opacity="0.33"/>
  <circle cx="4" cy="749" r="2.7" fill="#f5f1ea" opacity="0.66"/>
  <circle cx="655" cy="458" r="2.7" fill="#f5f1ea" opacity="0.61"/>
  <!-- frame -->
  <rect x="370" y="300" width="460" height="300" rx="24"
        fill="none" stroke="#e9a6bd" stroke-opacity="0.5" stroke-width="2"/>
  <!-- icon: a house for the future-home placeholders, otherwise a heart -->
  <path transform="translate(582,354) scale(1.4)"
        d="M18 30 C 4 18, 4 6, 12 4 C 16 3, 18 6, 18 8 C 18 6, 20 3, 24 4 C 32 6, 32 18, 18 30 Z"
        fill="#e9a6bd" opacity="0.85"/>
  <text x="50%" y="470" text-anchor="middle"
        font-family="Georgia, 'Times New Roman', serif" font-size="34"
        fill="#f5f1ea" letter-spacing="3">PHOTO_PLACEHOLDER_10</text>
  <text x="50%" y="518" text-anchor="middle"
        font-family="Georgia, serif" font-size="20" fill="#a9b0cf" letter-spacing="2">
    drop your photo here
  </text>
</svg>