<svg xmlns="http://www.w3.org/2000/svg" width="1200" height="900" viewBox="0 0 1200 900">
  <defs>
    <linearGradient id="g" x1="0" y1="0" x2="1" y2="1">
      <stop offset="0" stop-color="#241b48"/>
      <stop offset="1" stop-color="#5a3a5e"/>
    </linearGradient>
    <radialGradient id="glow" cx="0.7" cy="0.3" r="0.6">
      <stop offset="0" stop-color="#b7a4ec" stop-opacity="0.35"/>
      <stop offset="1" stop-color="#b7a4ec" stop-opacity="0"/>
    </radialGradient>
  </defs>
  <rect width="1200" height="900" fill="url(#g)"/>
  <rect width="1200" height="900" fill="url(#glow)"/>
  <!-- soft sparkles -->
  <circle cx="934" cy="21" r="2.5" fill="#f5f1ea" opacity="0.21"/>
  <circle cx="889" cy="295" r="1.9" fill="#f5f1ea" opacity="0.59"/>
  <circle cx="574" cy="465" r="2.0" fill="#f5f1ea" opacity="0.37"/>
  <circle cx="676" cy="549" r="1.4" fill="#f5f1ea" opacity="0.53"/>
  <circle cx="962" cy="768" r="2.9" fill="#f5f1ea" opacity="0.23"/>
  <circle cx="393" cy="519" r="1.2" fill="#f5f1ea" opacity="0.53"/>
  <circle cx="273" cy="457" r="2.0" fill="#f5f1ea" opacity="0.44"/>
  <circle cx="619" cy="443" r="1.5" fill="#f5f1ea" opacity="0.27"/>
  <circle cx="294" cy="223" r="1.6" fill="#f5f1ea" opacity="0.36"/>
  <circle cx="19" cy="146" r="1.9" fill="#f5f1ea" opacity="0.45"/>
  <circle cx="733" cy="367" r="2.8" fill="#f5f1ea" opacity="0.67"/>
  <circle cx="902" cy="431" r="1.3" fill="#f5f1ea" opacity="0.65"/>
  <circle cx="286" cy="223" r="2.4" fill="#f5f1ea" opacity="0.37"/>
  <circle cx="470" cy="607" r="2.3" fill="#f5f1ea" opacity="0.49"/>
  <circle cx="376" cy="638" r="1.6" fill="#f5f1ea" opacity="0.54"/>
  <circle cx="30" cy="168" r="2.5" fill="#f5f1ea" opacity="0.55"/>
  <circle cx="402" cy="433" r="2.2" fill="#f5f1ea" opacity="0.24"/>
  <circle cx="837" cy="177" r="1.7" fill="#f5f1ea" opacity="0.36"/>
  <!-- frame -->
  <rect x="370" y="300" width="460" height="300" rx="24"
        fill="none" stroke="#b7a4ec" stroke-opacity="0.5" stroke-width="2"/>
  <!-- icon: a house for the future-home placeholders, otherwise a heart -->
  <g transform="translate(566,346) scale(2.0)" fill="#b7a4ec" opacity="0.9">
    <path d="M17 2 L32 14 L29 14 L29 30 L20 30 L20 21 L14 21 L14 30 L5 30 L5 14 L2 14 Z"/>
  </g>
  <text x="50%" y="470" text-anchor="middle"
        font-family="Georgia, 'Times New Roman', serif" font-size="34"
        fill="#f5f1ea" letter-spacing="3">PHOTO_PLACEHOLDER_HOUSE_01</text>
  <text x="50%" y="518" text-anchor="middle"
        font-family="Georgia, serif" font-size="20" fill="#a9b0cf" letter-spacing="2">
    drop your photo here
  </text>
</svg>