<svg xmlns="http://www.w3.org/2000/svg" width="1200" height="900" viewBox="0 0 1200 900">
  <defs>
    <linearGradient id="g" x1="0" y1="0" x2="1" y2="1">
      <stop offset="0" stop-color="#0f1330"/>
      <stop offset="1" stop-color="#24306b"/>
    </linearGradient>
    <radialGradient id="glow" cx="0.7" cy="0.3" r="0.6">
      <stop offset="0" stop-color="#ffe3ad" stop-opacity="0.35"/>
      <stop offset="1" stop-color="#ffe3ad" stop-opacity="0"/>
    </radialGradient>
  </defs>
  <rect width="1200" height="900" fill="url(#g)"/>
  <rect width="1200" height="900" fill="url(#glow)"/>
  <!-- soft sparkles -->
  <circle cx="170" cy="146" r="2.5" fill="#f5f1ea" opacity="0.24"/>
  <circle cx="286" cy="557" r="2.5" fill="#f5f1ea" opacity="0.47"/>
  <circle cx="1004" cy="130" r="1.2" fill="#f5f1ea" opacity="0.46"/>
  <circle cx="753" cy="559" r="2.0" fill="#f5f1ea" opacity="0.40"/>
  <circle cx="448" cy="221" r="1.3" fill="#f5f1ea" opacity="0.63"/>
  <circle cx="588" cy="116" r="1.2" fill="#f5f1ea" opacity="0.56"/>
  <circle cx="1078" cy="502" r="1.6" fill="#f5f1ea" opacity="0.67"/>
  <circle cx="111" cy="742" r="1.1" fill="#f5f1ea" opacity="0.21"/>
  <circle cx="1159" cy="453" r="2.5" fill="#f5f1ea" opacity="0.42"/>
  <circle cx="1084" cy="503" r="1.8" fill="#f5f1ea" opacity="0.60"/>
  <circle cx="437" cy="381" r="3.0" fill="#f5f1ea" opacity="0.28"/>
  <circle cx="637" cy="82" r="1.4" fill="#f5f1ea" opacity="0.21"/>
  <circle cx="320" cy="208" r="3.0" fill="#f5f1ea" opacity="0.49"/>
  <circle cx="650" cy="559" r="2.3" fill="#f5f1ea" opacity="0.35"/>
  <circle cx="945" cy="848" r="1.8" fill="#f5f1ea" opacity="0.22"/>
  <circle cx="697" cy="470" r="2.0" fill="#f5f1ea" opacity="0.31"/>
  <circle cx="813" cy="746" r="1.6" fill="#f5f1ea" opacity="0.39"/>
  <circle cx="32" cy="899" r="1.1" fill="#f5f1ea" opacity="0.54"/>
  <!-- frame -->
  <rect x="370" y="300" width="460" height="300" rx="24"
        fill="none" stroke="#ffe3ad" stroke-opacity="0.5" stroke-width="2"/>
  <!-- icon: a house for the future-home placeholders, otherwise a heart -->
  <path transform="translate(582,354) scale(1.4)"
        d="M18 30 C 4 18, 4 6, 12 4 C 16 3, 18 6, 18 8 C 18 6, 20 3, 24 4 C 32 6, 32 18, 18 30 Z"
        fill="#ffe3ad" opacity="0.85"/>
  <text x="50%" y="470" text-anchor="middle"
        font-family="Georgia, 'Times New Roman', serif" font-size="34"
        fill="#f5f1ea" letter-spacing="3">PHOTO_PLACEHOLDER_08</text>
  <text x="50%" y="518" text-anchor="middle"
        font-family="Georgia, serif" font-size="20" fill="#a9b0cf" letter-spacing="2">
    drop your photo here
  </text>
</svg>