<svg xmlns="http://www.w3.org/2000/svg" width="1200" height="900" viewBox="0 0 1200 900">
  <defs>
    <linearGradient id="g" x1="0" y1="0" x2="1" y2="1">
      <stop offset="0" stop-color="#161d45"/>
      <stop offset="1" stop-color="#3a2150"/>
    </linearGradient>
    <radialGradient id="glow" cx="0.7" cy="0.3" r="0.6">
      <stop offset="0" stop-color="#f4c982" stop-opacity="0.35"/>
      <stop offset="1" stop-color="#f4c982" stop-opacity="0"/>
    </radialGradient>
  </defs>
  <rect width="1200" height="900" fill="url(#g)"/>
  <rect width="1200" height="900" fill="url(#glow)"/>
  <!-- soft sparkles -->
  <circle cx="20" cy="213" r="2.5" fill="#f5f1ea" opacity="0.29"/>
  <circle cx="198" cy="438" r="1.1" fill="#f5f1ea" opacity="0.37"/>
  <circle cx="156" cy="664" r="1.8" fill="#f5f1ea" opacity="0.54"/>
  <circle cx="1099" cy="761" r="1.7" fill="#f5f1ea" opacity="0.52"/>
  <circle cx="414" cy="666" r="2.5" fill="#f5f1ea" opacity="0.34"/>
  <circle cx="713" cy="247" r="2.7" fill="#f5f1ea" opacity="0.47"/>
  <circle cx="817" cy="805" r="1.0" fill="#f5f1ea" opacity="0.53"/>
  <circle cx="649" cy="800" r="1.1" fill="#f5f1ea" opacity="0.60"/>
  <circle cx="481" cy="190" r="2.0" fill="#f5f1ea" opacity="0.55"/>
  <circle cx="169" cy="480" r="1.5" fill="#f5f1ea" opacity="0.22"/>
  <circle cx="273" cy="853" r="1.4" fill="#f5f1ea" opacity="0.46"/>
  <circle cx="996" cy="552" r="1.6" fill="#f5f1ea" opacity="0.46"/>
  <circle cx="430" cy="6" r="2.5" fill="#f5f1ea" opacity="0.62"/>
  <circle cx="1124" cy="890" r="2.2" fill="#f5f1ea" opacity="0.31"/>
  <circle cx="826" cy="582" r="1.2" fill="#f5f1ea" opacity="0.44"/>
  <circle cx="457" cy="588" r="1.8" fill="#f5f1ea" opacity="0.65"/>
  <circle cx="306" cy="153" r="1.6" fill="#f5f1ea" opacity="0.51"/>
  <circle cx="575" cy="385" r="1.7" fill="#f5f1ea" opacity="0.61"/>
  <!-- frame -->
  <rect x="370" y="300" width="460" height="300" rx="24"
        fill="none" stroke="#f4c982" stroke-opacity="0.5" stroke-width="2"/>
  <!-- icon: a house for the future-home placeholders, otherwise a heart -->
  <path transform="translate(582,354) scale(1.4)"
        d="M18 30 C 4 18, 4 6, 12 4 C 16 3, 18 6, 18 8 C 18 6, 20 3, 24 4 C 32 6, 32 18, 18 30 Z"
        fill="#f4c982" opacity="0.85"/>
  <text x="50%" y="470" text-anchor="middle"
        font-family="Georgia, 'Times New Roman', serif" font-size="34"
        fill="#f5f1ea" letter-spacing="3">PHOTO_PLACEHOLDER_01</text>
  <text x="50%" y="518" text-anchor="middle"
        font-family="Georgia, serif" font-size="20" fill="#a9b0cf" letter-spacing="2">
    drop your photo here
  </text>
</svg>