<svg xmlns="http://www.w3.org/2000/svg" width="1200" height="900" viewBox="0 0 1200 900">
  <defs>
    <linearGradient id="g" x1="0" y1="0" x2="1" y2="1">
      <stop offset="0" stop-color="#0f1330"/>
      <stop offset="1" stop-color="#3a2a5e"/>
    </linearGradient>
    <radialGradient id="glow" cx="0.7" cy="0.3" r="0.6">
      <stop offset="0" stop-color="#e9a6bd" stop-opacity="0.35"/>
      <stop offset="1" stop-color="#e9a6bd" stop-opacity="0"/>
    </radialGradient>
  </defs>
  <rect width="1200" height="900" fill="url(#g)"/>
  <rect width="1200" height="900" fill="url(#glow)"/>
  <!-- soft sparkles -->
  <circle cx="484" cy="28" r="1.5" fill="#f5f1ea" opacity="0.51"/>
  <circle cx="343" cy="607" r="2.4" fill="#f5f1ea" opacity="0.39"/>
  <circle cx="776" cy="547" r="2.3" fill="#f5f1ea" opacity="0.61"/>
  <circle cx="152" cy="851" r="2.7" fill="#f5f1ea" opacity="0.52"/>
  <circle cx="1052" cy="483" r="1.0" fill="#f5f1ea" opacity="0.63"/>
  <circle cx="909" cy="14" r="2.3" fill="#f5f1ea" opacity="0.32"/>
  <circle cx="510" cy="843" r="2.2" fill="#f5f1ea" opacity="0.61"/>
  <circle cx="865" cy="95" r="2.8" fill="#f5f1ea" opacity="0.64"/>
  <circle cx="1081" cy="379" r="1.7" fill="#f5f1ea" opacity="0.54"/>
  <circle cx="895" cy="414" r="1.4" fill="#f5f1ea" opacity="0.32"/>
  <circle cx="705" cy="167" r="2.6" fill="#f5f1ea" opacity="0.66"/>
  <circle cx="518" cy="840" r="1.1" fill="#f5f1ea" opacity="0.25"/>
  <circle cx="624" cy="213" r="2.5" fill="#f5f1ea" opacity="0.47"/>
  <circle cx="627" cy="717" r="2.5" fill="#f5f1ea" opacity="0.38"/>
  <circle cx="848" cy="557" r="3.0" fill="#f5f1ea" opacity="0.22"/>
  <circle cx="113" cy="356" r="2.6" fill="#f5f1ea" opacity="0.65"/>
  <circle cx="964" cy="32" r="2.6" fill="#f5f1ea" opacity="0.43"/>
  <circle cx="111" cy="115" r="1.1" fill="#f5f1ea" opacity="0.64"/>
  <!-- frame -->
  <rect x="370" y="300" width="460" height="300" rx="24"
        fill="none" stroke="#e9a6bd" stroke-opacity="0.5" stroke-width="2"/>
  <!-- icon: a house for the future-home placeholders, otherwise a heart -->
  <g transform="translate(566,346) scale(2.0)" fill="#e9a6bd" opacity="0.9">
    <path d="M17 2 L32 14 L29 14 L29 30 L20 30 L20 21 L14 21 L14 30 L5 30 L5 14 L2 14 Z"/>
  </g>
  <text x="50%" y="470" text-anchor="middle"
        font-family="Georgia, 'Times New Roman', serif" font-size="34"
        fill="#f5f1ea" letter-spacing="3">PHOTO_PLACEHOLDER_HOUSE_04</text>
  <text x="50%" y="518" text-anchor="middle"
        font-family="Georgia, serif" font-size="20" fill="#a9b0cf" letter-spacing="2">
    drop your photo here
  </text>
</svg>