<svg xmlns="http://www.w3.org/2000/svg" width="1200" height="900" viewBox="0 0 1200 900">
  <defs>
    <linearGradient id="g" x1="0" y1="0" x2="1" y2="1">
      <stop offset="0" stop-color="#1a2150"/>
      <stop offset="1" stop-color="#603a4a"/>
    </linearGradient>
    <radialGradient id="glow" cx="0.7" cy="0.3" r="0.6">
      <stop offset="0" stop-color="#b7a4ec" stop-opacity="0.35"/>
      <stop offset="1" stop-color="#b7a4ec" stop-opacity="0"/>
    </radialGradient>
  </defs>
  <rect width="1200" height="900" fill="url(#g)"/>
  <rect width="1200" height="900" fill="url(#glow)"/>
  <!-- soft sparkles -->
  <circle cx="584" cy="863" r="1.6" fill="#f5f1ea" opacity="0.46"/>
  <circle cx="264" cy="9" r="2.9" fill="#f5f1ea" opacity="0.56"/>
  <circle cx="874" cy="566" r="2.3" fill="#f5f1ea" opacity="0.59"/>
  <circle cx="936" cy="321" r="2.0" fill="#f5f1ea" opacity="0.62"/>
  <circle cx="1122" cy="517" r="1.6" fill="#f5f1ea" opacity="0.21"/>
  <circle cx="864" cy="7" r="1.7" fill="#f5f1ea" opacity="0.49"/>
  <circle cx="254" cy="59" r="1.9" fill="#f5f1ea" opacity="0.68"/>
  <circle cx="480" cy="418" r="2.7" fill="#f5f1ea" opacity="0.53"/>
  <circle cx="857" cy="383" r="1.4" fill="#f5f1ea" opacity="0.65"/>
  <circle cx="137" cy="538" r="2.4" fill="#f5f1ea" opacity="0.26"/>
  <circle cx="273" cy="333" r="1.5" fill="#f5f1ea" opacity="0.44"/>
  <circle cx="934" cy="7" r="2.8" fill="#f5f1ea" opacity="0.23"/>
  <circle cx="960" cy="95" r="1.1" fill="#f5f1ea" opacity="0.36"/>
  <circle cx="929" cy="9" r="1.2" fill="#f5f1ea" opacity="0.30"/>
  <circle cx="712" cy="163" r="2.8" fill="#f5f1ea" opacity="0.68"/>
  <circle cx="782" cy="31" r="1.0" fill="#f5f1ea" opacity="0.46"/>
  <circle cx="882" cy="674" r="2.6" fill="#f5f1ea" opacity="0.47"/>
  <circle cx="564" cy="118" r="1.7" fill="#f5f1ea" opacity="0.43"/>
  <!-- frame -->
  <rect x="370" y="300" width="460" height="300" rx="24"
        fill="none" stroke="#b7a4ec" stroke-opacity="0.5" stroke-width="2"/>
  <!-- icon: a house for the future-home placeholders, otherwise a heart -->
  <path transform="translate(582,354) scale(1.4)"
        d="M18 30 C 4 18, 4 6, 12 4 C 16 3, 18 6, 18 8 C 18 6, 20 3, 24 4 C 32 6, 32 18, 18 30 Z"
        fill="#b7a4ec" opacity="0.85"/>
  <text x="50%" y="470" text-anchor="middle"
        font-family="Georgia, 'Times New Roman', serif" font-size="34"
        fill="#f5f1ea" letter-spacing="3">PHOTO_PLACEHOLDER_11</text>
  <text x="50%" y="518" text-anchor="middle"
        font-family="Georgia, serif" font-size="20" fill="#a9b0cf" letter-spacing="2">
    drop your photo here
  </text>
</svg>