<svg xmlns="http://www.w3.org/2000/svg" width="1200" height="900" viewBox="0 0 1200 900">
  <defs>
    <linearGradient id="g" x1="0" y1="0" x2="1" y2="1">
      <stop offset="0" stop-color="#0f1330"/>
      <stop offset="1" stop-color="#3a2a5e"/>
    </linearGradient>
    <radialGradient id="glow" cx="0.7" cy="0.3" r="0.6">
      <stop offset="0" stop-color="#ffe3ad" stop-opacity="0.35"/>
      <stop offset="1" stop-color="#ffe3ad" stop-opacity="0"/>
    </radialGradient>
  </defs>
  <rect width="1200" height="900" fill="url(#g)"/>
  <rect width="1200" height="900" fill="url(#glow)"/>
  <!-- soft sparkles -->
  <circle cx="54" cy="589" r="2.9" fill="#f5f1ea" opacity="0.59"/>
  <circle cx="801" cy="174" r="1.7" fill="#f5f1ea" opacity="0.59"/>
  <circle cx="613" cy="571" r="1.3" fill="#f5f1ea" opacity="0.20"/>
  <circle cx="687" cy="509" r="1.6" fill="#f5f1ea" opacity="0.56"/>
  <circle cx="1178" cy="416" r="2.5" fill="#f5f1ea" opacity="0.53"/>
  <circle cx="134" cy="333" r="2.1" fill="#f5f1ea" opacity="0.63"/>
  <circle cx="977" cy="291" r="1.9" fill="#f5f1ea" opacity="0.69"/>
  <circle cx="611" cy="587" r="2.1" fill="#f5f1ea" opacity="0.50"/>
  <circle cx="647" cy="520" r="2.9" fill="#f5f1ea" opacity="0.63"/>
  <circle cx="891" cy="835" r="2.0" fill="#f5f1ea" opacity="0.43"/>
  <circle cx="874" cy="328" r="2.8" fill="#f5f1ea" opacity="0.30"/>
  <circle cx="557" cy="787" r="1.5" fill="#f5f1ea" opacity="0.68"/>
  <circle cx="417" cy="266" r="2.0" fill="#f5f1ea" opacity="0.45"/>
  <circle cx="1130" cy="449" r="1.2" fill="#f5f1ea" opacity="0.37"/>
  <circle cx="1065" cy="361" r="1.2" fill="#f5f1ea" opacity="0.23"/>
  <circle cx="184" cy="628" r="2.0" fill="#f5f1ea" opacity="0.58"/>
  <circle cx="434" cy="274" r="1.9" fill="#f5f1ea" opacity="0.41"/>
  <circle cx="361" cy="848" r="1.1" fill="#f5f1ea" opacity="0.67"/>
  <!-- frame -->
  <rect x="370" y="300" width="460" height="300" rx="24"
        fill="none" stroke="#ffe3ad" stroke-opacity="0.5" stroke-width="2"/>
  <!-- icon: a house for the future-home placeholders, otherwise a heart -->
  <path transform="translate(582,354) scale(1.4)"
        d="M18 30 C 4 18, 4 6, 12 4 C 16 3, 18 6, 18 8 C 18 6, 20 3, 24 4 C 32 6, 32 18, 18 30 Z"
        fill="#ffe3ad" opacity="0.85"/>
  <text x="50%" y="470" text-anchor="middle"
        font-family="Georgia, 'Times New Roman', serif" font-size="34"
        fill="#f5f1ea" letter-spacing="3">PHOTO_PLACEHOLDER_12</text>
  <text x="50%" y="518" text-anchor="middle"
        font-family="Georgia, serif" font-size="20" fill="#a9b0cf" letter-spacing="2">
    drop your photo here
  </text>
</svg>