<svg xmlns="http://www.w3.org/2000/svg" width="1200" height="900" viewBox="0 0 1200 900">
  <defs>
    <linearGradient id="g" x1="0" y1="0" x2="1" y2="1">
      <stop offset="0" stop-color="#1a2150"/>
      <stop offset="1" stop-color="#603a4a"/>
    </linearGradient>
    <radialGradient id="glow" cx="0.7" cy="0.3" r="0.6">
      <stop offset="0" stop-color="#f4c982" stop-opacity="0.35"/>
      <stop offset="1" stop-color="#f4c982" stop-opacity="0"/>
    </radialGradient>
  </defs>
  <rect width="1200" height="900" fill="url(#g)"/>
  <rect width="1200" height="900" fill="url(#glow)"/>
  <!-- soft sparkles -->
  <circle cx="1146" cy="300" r="1.5" fill="#f5f1ea" opacity="0.63"/>
  <circle cx="605" cy="772" r="2.9" fill="#f5f1ea" opacity="0.29"/>
  <circle cx="407" cy="783" r="2.0" fill="#f5f1ea" opacity="0.50"/>
  <circle cx="758" cy="50" r="1.5" fill="#f5f1ea" opacity="0.70"/>
  <circle cx="519" cy="750" r="1.1" fill="#f5f1ea" opacity="0.27"/>
  <circle cx="1083" cy="197" r="2.5" fill="#f5f1ea" opacity="0.61"/>
  <circle cx="413" cy="149" r="1.9" fill="#f5f1ea" opacity="0.64"/>
  <circle cx="215" cy="73" r="1.5" fill="#f5f1ea" opacity="0.46"/>
  <circle cx="242" cy="222" r="1.2" fill="#f5f1ea" opacity="0.34"/>
  <circle cx="1077" cy="599" r="1.3" fill="#f5f1ea" opacity="0.44"/>
  <circle cx="386" cy="602" r="1.4" fill="#f5f1ea" opacity="0.20"/>
  <circle cx="322" cy="88" r="2.0" fill="#f5f1ea" opacity="0.28"/>
  <circle cx="576" cy="481" r="1.5" fill="#f5f1ea" opacity="0.63"/>
  <circle cx="464" cy="584" r="2.4" fill="#f5f1ea" opacity="0.24"/>
  <circle cx="271" cy="635" r="2.4" fill="#f5f1ea" opacity="0.65"/>
  <circle cx="421" cy="660" r="1.3" fill="#f5f1ea" opacity="0.37"/>
  <circle cx="579" cy="193" r="2.0" fill="#f5f1ea" opacity="0.34"/>
  <circle cx="1166" cy="759" r="2.3" fill="#f5f1ea" opacity="0.47"/>
  <!-- frame -->
  <rect x="370" y="300" width="460" height="300" rx="24"
        fill="none" stroke="#f4c982" stroke-opacity="0.5" stroke-width="2"/>
  <!-- icon: a house for the future-home placeholders, otherwise a heart -->
  <path transform="translate(582,354) scale(1.4)"
        d="M18 30 C 4 18, 4 6, 12 4 C 16 3, 18 6, 18 8 C 18 6, 20 3, 24 4 C 32 6, 32 18, 18 30 Z"
        fill="#f4c982" opacity="0.85"/>
  <text x="50%" y="470" text-anchor="middle"
        font-family="Georgia, 'Times New Roman', serif" font-size="34"
        fill="#f5f1ea" letter-spacing="3">PHOTO_PLACEHOLDER_05</text>
  <text x="50%" y="518" text-anchor="middle"
        font-family="Georgia, serif" font-size="20" fill="#a9b0cf" letter-spacing="2">
    drop your photo here
  </text>
</svg>