<svg xmlns="http://www.w3.org/2000/svg" width="1200" height="900" viewBox="0 0 1200 900">
  <defs>
    <linearGradient id="g" x1="0" y1="0" x2="1" y2="1">
      <stop offset="0" stop-color="#161d45"/>
      <stop offset="1" stop-color="#3a2150"/>
    </linearGradient>
    <radialGradient id="glow" cx="0.7" cy="0.3" r="0.6">
      <stop offset="0" stop-color="#b7a4ec" stop-opacity="0.35"/>
      <stop offset="1" stop-color="#b7a4ec" stop-opacity="0"/>
    </radialGradient>
  </defs>
  <rect width="1200" height="900" fill="url(#g)"/>
  <rect width="1200" height="900" fill="url(#glow)"/>
  <!-- soft sparkles -->
  <circle cx="74" cy="655" r="1.8" fill="#f5f1ea" opacity="0.67"/>
  <circle cx="361" cy="737" r="2.9" fill="#f5f1ea" opacity="0.67"/>
  <circle cx="971" cy="329" r="1.3" fill="#f5f1ea" opacity="0.53"/>
  <circle cx="594" cy="621" r="2.6" fill="#f5f1ea" opacity="0.70"/>
  <circle cx="1189" cy="570" r="2.1" fill="#f5f1ea" opacity="0.21"/>
  <circle cx="1102" cy="828" r="2.4" fill="#f5f1ea" opacity="0.31"/>
  <circle cx="570" cy="641" r="2.3" fill="#f5f1ea" opacity="0.58"/>
  <circle cx="47" cy="7" r="1.2" fill="#f5f1ea" opacity="0.34"/>
  <circle cx="61" cy="675" r="1.2" fill="#f5f1ea" opacity="0.54"/>
  <circle cx="49" cy="349" r="2.3" fill="#f5f1ea" opacity="0.64"/>
  <circle cx="1191" cy="7" r="1.2" fill="#f5f1ea" opacity="0.52"/>
  <circle cx="371" cy="557" r="2.4" fill="#f5f1ea" opacity="0.46"/>
  <circle cx="571" cy="93" r="1.2" fill="#f5f1ea" opacity="0.22"/>
  <circle cx="585" cy="83" r="2.9" fill="#f5f1ea" opacity="0.30"/>
  <circle cx="706" cy="603" r="2.3" fill="#f5f1ea" opacity="0.32"/>
  <circle cx="904" cy="446" r="1.4" fill="#f5f1ea" opacity="0.22"/>
  <circle cx="195" cy="150" r="2.1" fill="#f5f1ea" opacity="0.34"/>
  <circle cx="521" cy="279" r="3.0" fill="#f5f1ea" opacity="0.38"/>
  <!-- frame -->
  <rect x="370" y="300" width="460" height="300" rx="24"
        fill="none" stroke="#b7a4ec" stroke-opacity="0.5" stroke-width="2"/>
  <!-- icon: a house for the future-home placeholders, otherwise a heart -->
  <path transform="translate(582,354) scale(1.4)"
        d="M18 30 C 4 18, 4 6, 12 4 C 16 3, 18 6, 18 8 C 18 6, 20 3, 24 4 C 32 6, 32 18, 18 30 Z"
        fill="#b7a4ec" opacity="0.85"/>
  <text x="50%" y="470" text-anchor="middle"
        font-family="Georgia, 'Times New Roman', serif" font-size="34"
        fill="#f5f1ea" letter-spacing="3">PHOTO_PLACEHOLDER_07</text>
  <text x="50%" y="518" text-anchor="middle"
        font-family="Georgia, serif" font-size="20" fill="#a9b0cf" letter-spacing="2">
    drop your photo here
  </text>
</svg>