<svg xmlns="http://www.w3.org/2000/svg" width="1200" height="900" viewBox="0 0 1200 900">
  <defs>
    <linearGradient id="g" x1="0" y1="0" x2="1" y2="1">
      <stop offset="0" stop-color="#241b48"/>
      <stop offset="1" stop-color="#5a3a5e"/>
    </linearGradient>
    <radialGradient id="glow" cx="0.7" cy="0.3" r="0.6">
      <stop offset="0" stop-color="#f4c982" stop-opacity="0.35"/>
      <stop offset="1" stop-color="#f4c982" stop-opacity="0"/>
    </radialGradient>
  </defs>
  <rect width="1200" height="900" fill="url(#g)"/>
  <rect width="1200" height="900" fill="url(#glow)"/>
  <!-- soft sparkles -->
  <circle cx="87" cy="441" r="2.8" fill="#f5f1ea" opacity="0.43"/>
  <circle cx="623" cy="280" r="1.2" fill="#f5f1ea" opacity="0.22"/>
  <circle cx="624" cy="640" r="2.8" fill="#f5f1ea" opacity="0.27"/>
  <circle cx="101" cy="852" r="2.5" fill="#f5f1ea" opacity="0.38"/>
  <circle cx="817" cy="887" r="1.4" fill="#f5f1ea" opacity="0.26"/>
  <circle cx="182" cy="686" r="1.6" fill="#f5f1ea" opacity="0.31"/>
  <circle cx="943" cy="360" r="1.7" fill="#f5f1ea" opacity="0.36"/>
  <circle cx="927" cy="136" r="1.4" fill="#f5f1ea" opacity="0.69"/>
  <circle cx="297" cy="472" r="2.3" fill="#f5f1ea" opacity="0.42"/>
  <circle cx="442" cy="475" r="1.7" fill="#f5f1ea" opacity="0.36"/>
  <circle cx="822" cy="60" r="1.7" fill="#f5f1ea" opacity="0.23"/>
  <circle cx="653" cy="74" r="1.8" fill="#f5f1ea" opacity="0.24"/>
  <circle cx="10" cy="698" r="1.2" fill="#f5f1ea" opacity="0.25"/>
  <circle cx="894" cy="504" r="2.6" fill="#f5f1ea" opacity="0.63"/>
  <circle cx="768" cy="560" r="2.8" fill="#f5f1ea" opacity="0.33"/>
  <circle cx="867" cy="691" r="2.1" fill="#f5f1ea" opacity="0.24"/>
  <circle cx="380" cy="250" r="2.6" fill="#f5f1ea" opacity="0.39"/>
  <circle cx="319" cy="535" r="2.5" fill="#f5f1ea" opacity="0.27"/>
  <!-- frame -->
  <rect x="370" y="300" width="460" height="300" rx="24"
        fill="none" stroke="#f4c982" stroke-opacity="0.5" stroke-width="2"/>
  <!-- icon: a house for the future-home placeholders, otherwise a heart -->
  <path transform="translate(582,354) scale(1.4)"
        d="M18 30 C 4 18, 4 6, 12 4 C 16 3, 18 6, 18 8 C 18 6, 20 3, 24 4 C 32 6, 32 18, 18 30 Z"
        fill="#f4c982" opacity="0.85"/>
  <text x="50%" y="470" text-anchor="middle"
        font-family="Georgia, 'Times New Roman', serif" font-size="34"
        fill="#f5f1ea" letter-spacing="3">PHOTO_PLACEHOLDER_09</text>
  <text x="50%" y="518" text-anchor="middle"
        font-family="Georgia, serif" font-size="20" fill="#a9b0cf" letter-spacing="2">
    drop your photo here
  </text>
</svg>